<svg xmlns="http://www.w3.org/2000/svg" viewBox="0 0 800 450">
<rect width="800" height="450" fill="#fefbf5"/>
<circle cx="710" cy="70" r="130" fill="#efe6d8" opacity="0.6"/>
<circle cx="60" cy="410" r="90" fill="#ddd2c2" opacity="0.35"/>

<rect x="120" y="90" width="260" height="270" rx="16" fill="#ffffff" stroke="#efe6d8" stroke-width="2"/>
<rect x="150" y="130" width="200" height="14" rx="7" fill="#ddd2c2"/><rect x="150" y="164" width="172" height="14" rx="7" fill="#ddd2c2"/><rect x="150" y="198" width="188" height="14" rx="7" fill="#ddd2c2"/><rect x="150" y="232" width="156" height="14" rx="7" fill="#ddd2c2"/><rect x="150" y="266" width="110" height="14" rx="7" fill="#ddd2c2"/>
<rect x="420" y="90" width="260" height="270" rx="16" fill="#ffffff" stroke="#efe6d8" stroke-width="2"/>
<rect x="450" y="130" width="200" height="14" rx="7" fill="#c26a4a"/>
<rect x="450" y="164" width="160" height="14" rx="7" fill="#c26a4a" opacity="0.75"/>
<rect x="450" y="198" width="185" height="14" rx="7" fill="#c26a4a" opacity="0.55"/>
<rect x="450" y="232" width="140" height="14" rx="7" fill="#c26a4a" opacity="0.4"/>
<rect x="393" y="150" width="14" height="150" rx="7" fill="#efe6d8"/>

</svg>
